<svg width="15" height="18" viewBox="0 0 15 18" fill="none" xmlns="http://www.w3.org/2000/svg">
<path d="M6.16667 3.5833C6.16685 4.28478 5.9142 4.96284 5.45504 5.49317C4.99588 6.0235 4.36096 6.37059 3.66667 6.4708V8.5833H8.875C9.37228 8.5833 9.8492 8.38575 10.2008 8.03412C10.5525 7.68249 10.75 7.20558 10.75 6.7083V6.37913C10.0803 6.17728 9.50533 5.74159 9.12987 5.15142C8.75441 4.56124 8.60342 3.85584 8.70439 3.16369C8.80536 2.47153 9.15158 1.83866 9.67999 1.38034C10.2084 0.922026 10.8839 0.668745 11.5833 0.666631C12.3216 0.665301 13.033 0.944014 13.5739 1.44655C14.1147 1.94908 14.4449 2.63804 14.4978 3.37445C14.5506 4.11086 14.3223 4.83991 13.8587 5.41455C13.3952 5.98919 12.7309 6.36666 12 6.4708V6.7083C12 7.5371 11.6708 8.33196 11.0847 8.91801C10.4987 9.50406 9.7038 9.8333 8.875 9.8333H3.66667V11.5291C4.37827 11.6318 5.02686 11.9938 5.48794 12.5454C5.94902 13.0971 6.19009 13.7996 6.16488 14.5182C6.13967 15.2367 5.84995 15.9206 5.35134 16.4386C4.85273 16.9566 4.18037 17.2722 3.46332 17.3247C2.74627 17.3773 2.03506 17.1632 1.46622 16.7235C0.897382 16.2838 0.510996 15.6495 0.381233 14.9423C0.25147 14.2351 0.387476 13.5049 0.763143 12.8919C1.13881 12.2789 1.72766 11.8262 2.41667 11.6208V6.37913C1.74694 6.17728 1.172 5.74159 0.796539 5.15142C0.42108 4.56124 0.270086 3.85584 0.371057 3.16369C0.472028 2.47153 0.818246 1.83866 1.34666 1.38034C1.87507 0.922026 2.55052 0.668745 3.25 0.666631C4.02355 0.666631 4.76542 0.973922 5.3124 1.5209C5.85938 2.06788 6.16667 2.80975 6.16667 3.5833ZM3.25 5.24996C3.69203 5.24996 4.11595 5.07437 4.42851 4.76181C4.74107 4.44925 4.91667 4.02533 4.91667 3.5833C4.91667 3.14127 4.74107 2.71735 4.42851 2.40479C4.11595 2.09223 3.69203 1.91663 3.25 1.91663C2.80797 1.91663 2.38405 2.09223 2.07149 2.40479C1.75893 2.71735 1.58334 3.14127 1.58334 3.5833C1.58334 4.02533 1.75893 4.44925 2.07149 4.76181C2.38405 5.07437 2.80797 5.24996 3.25 5.24996ZM11.5833 5.24996C12.0254 5.24996 12.4493 5.07437 12.7618 4.76181C13.0744 4.44925 13.25 4.02533 13.25 3.5833C13.25 3.14127 13.0744 2.71735 12.7618 2.40479C12.4493 2.09223 12.0254 1.91663 11.5833 1.91663C11.1413 1.91663 10.7174 2.09223 10.4048 2.40479C10.0923 2.71735 9.91667 3.14127 9.91667 3.5833C9.91667 4.02533 10.0923 4.44925 10.4048 4.76181C10.7174 5.07437 11.1413 5.24996 11.5833 5.24996ZM4.91667 14.4166C4.91667 13.9746 4.74107 13.5507 4.42851 13.2381C4.11595 12.9256 3.69203 12.75 3.25 12.75C2.80797 12.75 2.38405 12.9256 2.07149 13.2381C1.75893 13.5507 1.58334 13.9746 1.58334 14.4166C1.58334 14.8587 1.75893 15.2826 2.07149 15.5951C2.38405 15.9077 2.80797 16.0833 3.25 16.0833C3.69203 16.0833 4.11595 15.9077 4.42851 15.5951C4.74107 15.2826 4.91667 14.8587 4.91667 14.4166Z" fill="black"/>
</svg>
