<svg width="84" height="24" viewBox="0 0 84 24" fill="none" xmlns="http://www.w3.org/2000/svg">
<path d="M34.5893 19.5227H34.552C34.5688 19.5227 34.58 19.5414 34.5968 19.5433H34.608L34.5893 19.5246V19.5227ZM34.5968 19.5433C34.4232 19.5451 33.9864 19.6366 33.5253 19.6366C32.0693 19.6366 31.5653 18.9646 31.5653 18.0873V12.2427H34.5333C34.7013 12.2427 34.832 12.0934 34.832 11.8881V8.71472C34.832 8.54672 34.6827 8.39739 34.5333 8.39739H31.5653V4.45872C31.5653 4.30939 31.472 4.21606 31.304 4.21606H27.272C27.104 4.21606 27.0107 4.30939 27.0107 4.45872V8.50939C27.0107 8.50939 24.976 9.01339 24.8453 9.03206C24.696 9.06939 24.6027 9.20006 24.6027 9.34939V11.8881C24.6027 12.0934 24.752 12.2427 24.92 12.2427H26.992V18.3654C26.992 22.9201 30.1653 23.3867 32.3307 23.3867C33.32 23.3867 34.5147 23.0694 34.7013 22.9761C34.8133 22.9387 34.8693 22.8081 34.8693 22.6774V19.8774C34.8719 19.798 34.8458 19.7203 34.7957 19.6586C34.7457 19.5969 34.675 19.5553 34.5968 19.5414V19.5433ZM78.8293 15.4347C78.8293 12.0561 77.4667 11.6081 76.0293 11.7574C74.9093 11.8321 74.0133 12.3921 74.0133 12.3921V18.9627C74.0133 18.9627 74.928 19.5974 76.2907 19.6347C78.2133 19.6907 78.8293 19.0001 78.8293 15.4347ZM83.3653 15.1361C83.3653 21.5387 81.2933 23.3681 77.672 23.3681C74.6107 23.3681 72.968 21.8187 72.968 21.8187C72.968 21.8187 72.8933 22.6774 72.8 22.7894C72.744 22.9014 72.6507 22.9387 72.5387 22.9387H69.776C69.5893 22.9387 69.4213 22.7894 69.4213 22.6214L69.4587 1.88272C69.4587 1.71472 69.608 1.56539 69.776 1.56539H73.752C73.92 1.56539 74.0693 1.71472 74.0693 1.88272V8.92006C74.0693 8.92006 75.6 7.93072 77.84 7.93072L77.8213 7.89339C80.0613 7.89339 83.3653 8.73339 83.3653 15.1361ZM67.088 8.39739H63.168C62.9627 8.39739 62.8507 8.54672 62.8507 8.75206V18.9067C62.8507 18.9067 61.824 19.6347 60.424 19.6347C59.024 19.6347 58.6133 19.0001 58.6133 17.6001V8.73339C58.6133 8.56539 58.464 8.41606 58.296 8.41606H54.3013C54.1333 8.41606 53.984 8.56539 53.984 8.73339V18.2721C53.984 22.3787 56.28 23.4054 59.4347 23.4054C62.0293 23.4054 64.1387 21.9681 64.1387 21.9681C64.1387 21.9681 64.232 22.6961 64.288 22.8081C64.3253 22.9014 64.456 22.9761 64.5867 22.9761H67.088C67.2933 22.9761 67.4053 22.8267 67.4053 22.6587L67.4427 8.71472C67.4427 8.54672 67.2933 8.39739 67.088 8.39739ZM22.848 8.37872H18.872C18.704 8.37872 18.5547 8.54672 18.5547 8.75206V22.4534C18.5547 22.8267 18.7973 22.9574 19.1147 22.9574H22.6987C23.072 22.9574 23.1653 22.7894 23.1653 22.4534V8.69606C23.1653 8.52806 23.016 8.37872 22.848 8.37872ZM20.888 2.06939C19.4507 2.06939 18.312 3.20806 18.312 4.64539C18.312 6.08272 19.4507 7.22139 20.888 7.22139C22.288 7.22139 23.4267 6.08272 23.4267 4.64539C23.4267 3.20806 22.288 2.06939 20.888 2.06939ZM51.6693 1.60272H47.7307C47.5627 1.60272 47.4133 1.75206 47.4133 1.92006V9.55472H41.2347V1.92006C41.2347 1.75206 41.0853 1.60272 40.9173 1.60272H36.9413C36.7733 1.60272 36.624 1.75206 36.624 1.92006V22.6587C36.624 22.8267 36.792 22.9761 36.9413 22.9761H40.9173C41.0853 22.9761 41.2347 22.8267 41.2347 22.6587V13.7921H47.4133L47.376 22.6587C47.376 22.8267 47.5253 22.9761 47.6933 22.9761H51.6693C51.8373 22.9761 51.9867 22.8267 51.9867 22.6587V1.92006C51.9867 1.75206 51.8373 1.60272 51.6693 1.60272ZM16.4453 10.7867V21.5014C16.4453 21.5761 16.4267 21.7067 16.3333 21.7441C16.3333 21.7441 14 23.4054 10.1547 23.4054C5.50667 23.4054 0 21.9494 0 12.3547C0 2.76006 4.816 0.78139 9.52 0.800057C13.5893 0.800057 15.232 1.71472 15.4933 1.88272C15.568 1.97606 15.6053 2.05072 15.6053 2.14406L14.8213 5.46672C14.8213 5.63472 14.6533 5.84006 14.448 5.78406C13.776 5.57872 12.768 5.16806 10.3973 5.16806C7.65333 5.16806 4.704 5.95206 4.704 12.1307C4.704 18.3094 7.504 19.0374 9.52 19.0374C11.2373 19.0374 11.8533 18.8321 11.8533 18.8321V14.5387H9.10933C8.904 14.5387 8.75467 14.3894 8.75467 14.2214V10.7867C8.75467 10.6187 8.904 10.4694 9.10933 10.4694H16.0907C16.296 10.4694 16.4453 10.6187 16.4453 10.7867Z" fill="white"/>
</svg>
