<svg width="18" height="17" viewBox="0 0 18 17" fill="none" xmlns="http://www.w3.org/2000/svg">
<path d="M16.7363 5.89649L11.7774 5.17579L9.56056 0.681648C9.50001 0.558601 9.4004 0.458992 9.27735 0.398445C8.96876 0.246101 8.59376 0.373054 8.43946 0.681648L6.22266 5.17579L1.26367 5.89649C1.12695 5.91603 1.00195 5.98048 0.906249 6.07814C0.790549 6.19705 0.726793 6.35704 0.72899 6.52294C0.731188 6.68885 0.799158 6.84709 0.917967 6.9629L4.50586 10.461L3.65821 15.4004C3.63833 15.5153 3.65104 15.6335 3.69491 15.7415C3.73877 15.8496 3.81204 15.9432 3.90639 16.0117C4.00074 16.0802 4.1124 16.1209 4.22871 16.1292C4.34503 16.1375 4.46134 16.1131 4.56446 16.0586L9.00001 13.7266L13.4356 16.0586C13.5567 16.1231 13.6973 16.1445 13.832 16.1211C14.1719 16.0625 14.4004 15.7403 14.3418 15.4004L13.4942 10.461L17.082 6.9629C17.1797 6.8672 17.2442 6.7422 17.2637 6.60548C17.3164 6.26368 17.0781 5.94728 16.7363 5.89649Z" fill="black"/>
</svg>
