<svg width="16" height="16" viewBox="0 0 16 16" fill="none" xmlns="http://www.w3.org/2000/svg">
<path d="M7.93518 3.9873C7.53962 3.9873 7.15294 4.1046 6.82404 4.32436C6.49514 4.54413 6.2388 4.85648 6.08742 5.22194C5.93605 5.58739 5.89644 5.98952 5.97361 6.37748C6.05078 6.76544 6.24126 7.12181 6.52097 7.40151C6.80067 7.68122 7.15704 7.8717 7.545 7.94887C7.93296 8.02604 8.3351 7.98643 8.70055 7.83506C9.066 7.68368 9.37836 7.42734 9.59812 7.09844C9.81788 6.76954 9.93518 6.38286 9.93518 5.9873C9.93458 5.45705 9.72367 4.9487 9.34873 4.57376C8.97379 4.19882 8.46543 3.98791 7.93518 3.9873ZM7.93518 6.9873C7.7374 6.9873 7.54406 6.92865 7.37961 6.81877C7.21516 6.70889 7.08699 6.55271 7.0113 6.36999C6.93561 6.18726 6.91581 5.98619 6.9544 5.79221C6.99298 5.59823 7.08822 5.42005 7.22807 5.2802C7.36793 5.14034 7.54611 5.0451 7.74009 5.00652C7.93407 4.96793 8.13514 4.98774 8.31786 5.06342C8.50059 5.13911 8.65677 5.26728 8.76665 5.43173C8.87653 5.59618 8.93518 5.78952 8.93518 5.9873C8.93488 6.25242 8.82942 6.5066 8.64195 6.69407C8.45448 6.88154 8.2003 6.98699 7.93518 6.9873Z" fill="#0587FF"/>
<path d="M11.7784 2.14109C10.8281 1.19111 9.5597 0.626776 8.21786 0.557017C6.87602 0.487259 5.5559 0.917019 4.51228 1.76335C3.46867 2.60968 2.77555 3.81259 2.56669 5.13991C2.35783 6.46724 2.64804 7.82487 3.38131 8.95081L7.15965 14.7512C7.24373 14.8803 7.3587 14.9863 7.49412 15.0597C7.62955 15.1331 7.78115 15.1716 7.9352 15.1716C8.08924 15.1716 8.24084 15.1331 8.37627 15.0597C8.51169 14.9863 8.62666 14.8803 8.71074 14.7512L12.4892 8.95081C13.1696 7.90634 13.4703 6.65974 13.3409 5.41995C13.2114 4.18015 12.6598 3.02252 11.7784 2.14109ZM11.6513 8.40496L7.93521 14.1096L4.21906 8.40496C3.08156 6.65875 3.32553 4.32187 4.79915 2.84819C5.21098 2.43634 5.6999 2.10965 6.23798 1.88677C6.77607 1.66388 7.35279 1.54916 7.93521 1.54916C8.51763 1.54916 9.09435 1.66388 9.63244 1.88677C10.1705 2.10965 10.6594 2.43634 11.0713 2.84819C12.5449 4.32187 12.7888 6.65875 11.6513 8.40496Z" fill="#0587FF"/>
</svg>
